<svg xmlns="http://www.w3.org/2000/svg" width="36" height="36" viewBox="0 0 36 36" fill="none">
  <defs>
    <linearGradient id="lg" x1="0" y1="0" x2="1" y2="1">
      <stop offset="0%" stop-color="#0ea5e9"/>
      <stop offset="100%" stop-color="#22c55e"/>
    </linearGradient>
  </defs>
  <path d="M6 16 L18 7 L30 16 L30 30 C30 30.552 29.552 31 29 31 L22 31 C21.448 31 21 30.552 21 30 L21 24 C21 22.895 20.105 22 19 22 L17 22 C15.895 22 15 22.895 15 24 L15 30 C15 30.552 14.552 31 14 31 L7 31 C6.448 31 6 30.552 6 30 Z" fill="url(#lg)" stroke="#0f172a" stroke-width="1.5" stroke-linejoin="round"/>
</svg>
